# File created by Blade
# Date/Time:  Mon Sep 22 17:46:01 2014
# Frame Rate: 120.000 fps
#------------------------------------------------------
:FULLY-SPECIFIED
:DEGREES
4108
root 3.984275 37.624660 4.039563 3.863005 -53.421546 -22.031673
RightUpLeg -1.510861 -46.976284 -11.991523
RightLeg 105.139394 -0.000000 -0.000000
RightFoot -9.283665 -21.688251 11.785606
RightToeBase -6.077673 -0.000000 0.000000
LeftUpLeg 21.308671 15.972557 8.960718
LeftLeg -3.565344 -0.000000 0.000000
LeftFoot -17.621234 37.015652 -15.243896
LeftToeBase 3.258833 -0.000000 -0.000000
Spine 19.124106 -6.787072 -23.796648
RightShoulder -4.350156 -33.116698 -6.396099
RightArm 9.380483 -9.533206 76.385844
RightForeArm 20.579913 -0.000000 57.713268
RightHand -1.029549 0.000000 -20.270408
RightHandThumb1 -24.326973 -0.000000 -32.862282
LeftShoulder -19.802877 28.893921 10.072818
LeftArm 44.675079 -56.889153 -68.212941
LeftForeArm 30.064721 0.000000 102.781711
LeftHand -36.313597 0.000000 25.536031
LeftHandThumb1 -26.253704 0.000000 33.147579
Head 21.418782 38.420549 17.634709
4109
root 3.959756 37.625643 4.039525 3.852792 -53.246095 -21.933982
RightUpLeg -1.303910 -46.935453 -11.954224
RightLeg 104.973373 -0.000000 -0.000000
RightFoot -9.151485 -21.628915 11.637399
RightToeBase -6.274719 -0.000000 0.000000
LeftUpLeg 21.271607 16.002221 8.987101
LeftLeg -3.635021 -0.000000 0.000000
LeftFoot -17.507752 36.832316 -15.158302
LeftToeBase 3.203488 -0.000000 -0.000000
Spine 19.033960 -6.861515 -23.839364
RightShoulder -4.387928 -33.102581 -6.268802
RightArm 9.454647 -9.598222 76.397907
RightForeArm 20.390934 -0.000000 57.858884
RightHand -1.029639 0.000000 -20.459951
RightHandThumb1 -24.326973 -0.000000 -32.862282
LeftShoulder -19.803836 28.881878 10.146272
LeftArm 44.445692 -56.965771 -67.923094
LeftForeArm 29.874763 -0.000000 102.718786
LeftHand -36.246672 -0.000000 25.581926
LeftHandThumb1 -26.253704 0.000000 33.147579
Head 21.354454 38.161530 17.799945
4110
root 3.933936 37.625750 4.040325 3.801236 -53.071890 -21.822068
RightUpLeg -1.029735 -46.874493 -11.982463
RightLeg 104.804185 -0.000000 -0.000000
RightFoot -9.116853 -21.605793 11.655354
RightToeBase -6.144495 -0.000000 0.000000
LeftUpLeg 21.261963 15.988461 8.997976
LeftLeg -3.702499 -0.000000 0.000000
LeftFoot -17.376777 36.717448 -15.034167
LeftToeBase 3.121831 -0.000000 -0.000000
Spine 18.979638 -6.910569 -23.892173
RightShoulder -4.415864 -33.084071 -6.166528
RightArm 9.514477 -9.681415 76.441086
RightForeArm 20.192377 -0.000000 58.035159
RightHand -1.037340 0.000000 -20.447793
RightHandThumb1 -24.326973 -0.000000 -32.862282
LeftShoulder -19.813950 28.897582 10.208285
LeftArm 44.313397 -57.068863 -67.719317
LeftForeArm 29.780798 -0.000000 102.666436
LeftHand -36.457977 0.000000 25.725719
LeftHandThumb1 -26.253704 0.000000 33.147579
Head 21.326712 38.011759 18.054233
4111
root 3.909318 37.625746 4.040351 3.758668 -52.861281 -21.704644
RightUpLeg -0.732985 -46.852891 -12.033045
RightLeg 104.633317 -0.000000 -0.000000
RightFoot -9.130824 -21.614793 11.699042
RightToeBase -6.188049 -0.000000 0.000000
LeftUpLeg 21.218976 15.869084 8.974293
LeftLeg -3.768257 -0.000000 0.000000
LeftFoot -17.305548 36.651776 -14.986700
LeftToeBase 3.096620 -0.000000 -0.000000
Spine 18.930874 -6.989519 -23.948448
RightShoulder -4.448890 -33.041544 -6.068969
RightArm 9.571404 -9.778424 76.491113
RightForeArm 20.006002 -0.000000 58.207389
RightHand -1.087458 -0.000000 -20.494078
RightHandThumb1 -24.326973 -0.000000 -32.862282
LeftShoulder -19.825107 28.885638 10.270784
LeftArm 44.181846 -57.195806 -67.519940
LeftForeArm 29.590095 -0.000000 102.613106
LeftHand -36.412453 -0.000000 25.566806
LeftHandThumb1 -26.253704 0.000000 33.147579
Head 21.239502 37.808863 18.178971
4112
root 3.885067 37.624644 4.042875 3.696122 -52.633326 -21.553678
RightUpLeg -0.413109 -46.818729 -12.142613
RightLeg 104.482589 -0.000000 -0.000000
RightFoot -9.101066 -21.625607 11.697780
RightToeBase -6.149379 -0.000000 0.000000
LeftUpLeg 21.164225 15.681332 8.908631
LeftLeg -3.835075 -0.000000 0.000000
LeftFoot -17.264966 36.615676 -14.977218
LeftToeBase 3.120383 -0.000000 -0.000000
Spine 18.870811 -7.076561 -24.024732
RightShoulder -4.473074 -33.022365 -5.974663
RightArm 9.629414 -9.932181 76.497362
RightForeArm 19.851036 -0.000000 58.403337
RightHand -1.042279 -0.000000 -20.332307
RightHandThumb1 -24.326973 -0.000000 -32.862282
LeftShoulder -19.807336 28.830792 10.358605
LeftArm 43.945689 -57.322029 -67.227588
LeftForeArm 29.391143 0.000000 102.569348
LeftHand -36.544126 -0.000000 25.704310
LeftHandThumb1 -26.253704 0.000000 33.147579
Head 21.126400 37.525468 18.210709
4113
root 3.858227 37.622553 4.047548 3.624679 -52.418007 -21.395400
RightUpLeg -0.053959 -46.746582 -12.299095
RightLeg 104.333369 -0.000000 -0.000000
RightFoot -9.205672 -21.599724 11.829716
RightToeBase -5.774435 -0.000000 0.000000
LeftUpLeg 21.129593 15.469913 8.830234
LeftLeg -3.915671 -0.000000 0.000000
LeftFoot -17.222505 36.605137 -14.971030
LeftToeBase 3.092681 -0.000000 -0.000000
Spine 18.795685 -7.123255 -24.095379
RightShoulder -4.506424 -33.024456 -5.898092
RightArm 9.691593 -10.056915 76.549351
RightForeArm 19.651066 0.000000 58.611205
RightHand -1.264893 -0.000000 -20.394549
RightHandThumb1 -24.326973 -0.000000 -32.862282
LeftShoulder -19.777954 28.841712 10.417472
LeftArm 43.841815 -57.509830 -67.041691
LeftForeArm 29.234638 -0.000000 102.529887
LeftHand -36.639182 -0.000000 25.750890
LeftHandThumb1 -26.253704 0.000000 33.147579
Head 21.036964 37.242456 18.267536
